<svg width="128" height="128" viewBox="0 0 168 96" fill="none" xmlns="http://www.w3.org/2000/svg">
  <defs>
    <linearGradient id="mailmind-stroke" x1="12" y1="18" x2="138" y2="82" gradientUnits="userSpaceOnUse">
      <stop stop-color="#4F6BFF" />
      <stop offset="1" stop-color="#9C4DFF" />
    </linearGradient>
    <linearGradient id="mailmind-fade" x1="0" y1="48" x2="64" y2="48" gradientUnits="userSpaceOnUse">
      <stop stop-color="#4F6BFF" stop-opacity="0" />
      <stop offset="0.55" stop-color="#4F6BFF" stop-opacity="0.75" />
      <stop offset="1" stop-color="#4F6BFF" stop-opacity="0.95" />
    </linearGradient>
    <linearGradient id="mailmind-glow" x1="60" y1="22" x2="118" y2="54" gradientUnits="userSpaceOnUse">
      <stop stop-color="#4F6BFF" stop-opacity="0.72" />
      <stop offset="1" stop-color="#9C4DFF" stop-opacity="0.78" />
    </linearGradient>
  </defs>

  <path d="M6 40H41C48 40 54 37 58 31" stroke="url(#mailmind-fade)" stroke-width="2.1" stroke-linecap="round" />
  <path d="M0 49H35C43 49 49 46 54 42" stroke="url(#mailmind-fade)" stroke-width="2.1" stroke-linecap="round" />
  <path d="M10 58H38C45 58 50 56 55 51" stroke="url(#mailmind-fade)" stroke-width="2.1" stroke-linecap="round" />
  <path d="M18 67H43C49 67 54 64 58 59" stroke="url(#mailmind-fade)" stroke-width="1.9" stroke-linecap="round" />

  <path d="M54 31.5H121.5C124.4 31.5 126.8 33.9 126.8 36.8V70.1C126.8 73 124.4 75.4 121.5 75.4H54C51.1 75.4 48.7 73 48.7 70.1V36.8C48.7 33.9 51.1 31.5 54 31.5Z" stroke="url(#mailmind-stroke)" stroke-width="2.35" stroke-linejoin="round" />
  <path d="M51.8 37.4L87.9 59.6L123.9 37.4" stroke="url(#mailmind-stroke)" stroke-width="2.2" stroke-linecap="round" stroke-linejoin="round" />
  <path d="M50.9 70.2L79.8 49.8" stroke="url(#mailmind-stroke)" stroke-width="2" stroke-linecap="round" />
  <path d="M124.5 70.2L96 49.8" stroke="url(#mailmind-stroke)" stroke-width="2" stroke-linecap="round" />

  <path d="M67.5 34.8L77.8 28.5L88.7 25.6L100.5 28.4L110.8 34.6L106.2 42.5L96.6 38.7L86.5 38L76.8 41.3L69.6 45.8" stroke="url(#mailmind-glow)" stroke-width="1.5" stroke-linecap="round" stroke-linejoin="round" />
  <path d="M76.6 28.6L75.2 41.4L86.5 38.1L88.7 25.8L97 38.7L100.6 28.4L105.8 42.1" stroke="url(#mailmind-glow)" stroke-width="1.2" stroke-linecap="round" stroke-linejoin="round" opacity="0.9" />

  <circle cx="70.4" cy="35.8" r="1.75" fill="white" />
  <circle cx="78.3" cy="28.6" r="1.75" fill="white" />
  <circle cx="89.2" cy="25.8" r="2.15" fill="white" />
  <circle cx="100.8" cy="28.6" r="2.15" fill="white" />
  <circle cx="109.4" cy="35.6" r="1.75" fill="white" />
  <circle cx="74.8" cy="42.8" r="1.75" fill="white" />
  <circle cx="86.4" cy="38.3" r="1.75" fill="white" />
  <circle cx="96.7" cy="38.7" r="1.75" fill="white" />
  <circle cx="106.2" cy="42.6" r="1.75" fill="white" />
  <circle cx="89.8" cy="46.2" r="2.15" fill="white" />
</svg>
